<svg id="test-yo" xmlns="http://www.w3.org/2000/svg">
  <g id="square-group">
    <path style="fill:#f0f;stroke:#f0f;stroke-linecap:square;paint-order:markers stroke fill;stroke-opacity:1" id="square" d="M5.4415774 5.0528932h20v20h-20z"/>
  </g>
  <g id="circle-group">
    <circle style="fill:green;stroke:none;stroke-linecap:square;stroke-opacity:1;paint-order:markers stroke fill" id="circle" cx="74.835793" cy="74.835793" r="20"/>
  </g>
  <g id="hexagon-group">
    <path style="fill:#0f0;stroke:#000;stroke-linecap:square;stroke-opacity:1;paint-order:markers stroke fill" id="hexagon" d="m71.12919 22.349335-19.645236 5.263926L37.102643 13.23195l5.263925-19.6452369 19.645236-5.2639251L76.393115 2.7040989Z" transform="matrix(.49498 0 0 .49498 41.618463 16.801823)"/>
  </g>
  <g id="blob-group">
    <path id="blob" style="fill:red;stroke:#000;stroke-linecap:square;stroke-opacity:1;paint-order:markers stroke fill" d="M25.941577 50.141016a12.585191 11.854865 0 0 0-9.08789 3.691406h-5.09961v16.324219h5.09961A12.585191 11.854865 0 0 0 25.941577 73.85a12.585191 11.854865 0 0 0 9.087891-3.693359h5.099609V53.832422h-5.066406a12.585191 11.854865 0 0 0-9.121094-3.691406z"/>
  </g>
</svg>
